<?xml version="1.0" encoding="UTF-8" standalone="no"?>
<!-- Created with Inkscape (http://www.inkscape.org/) -->

<svg
   xmlns:dc="http://purl.org/dc/elements/1.1/"
   xmlns:cc="http://creativecommons.org/ns#"
   xmlns:rdf="http://www.w3.org/1999/02/22-rdf-syntax-ns#"
   xmlns:svg="http://www.w3.org/2000/svg"
   xmlns="http://www.w3.org/2000/svg"
   xmlns:sodipodi="http://sodipodi.sourceforge.net/DTD/sodipodi-0.dtd"
   xmlns:inkscape="http://www.inkscape.org/namespaces/inkscape"
   width="210mm"
   height="297mm"
   viewBox="0 0 210 297"
   version="1.1"
   id="svg8"
   sodipodi:docname="yorga.svg"
   inkscape:version="0.92.3 (2405546, 2018-03-11)">
  <defs
     id="defs2" />
  <sodipodi:namedview
     id="base"
     pagecolor="#ffffff"
     bordercolor="#666666"
     borderopacity="1.0"
     inkscape:pageopacity="0.0"
     inkscape:pageshadow="2"
     inkscape:zoom="1.0843569"
     inkscape:cx="214.46787"
     inkscape:cy="524.48088"
     inkscape:document-units="mm"
     inkscape:current-layer="layer1"
     showgrid="false"
     inkscape:window-width="2560"
     inkscape:window-height="1377"
     inkscape:window-x="-8"
     inkscape:window-y="-8"
     inkscape:window-maximized="1" />
  <metadata
     id="metadata5">
    <rdf:RDF>
      <cc:Work
         rdf:about="">
        <dc:format>image/svg+xml</dc:format>
        <dc:type
           rdf:resource="http://purl.org/dc/dcmitype/StillImage" />
        <dc:title></dc:title>
      </cc:Work>
    </rdf:RDF>
  </metadata>
  <g
     inkscape:label="Calque 1"
     inkscape:groupmode="layer"
     id="layer1">
    <path
       style="fill:#c84600;stroke-width:0.7137388;fill-opacity:1"
       d="m 100.085,235.234 c -32.541142,-3.41667 -61.139002,-22.80137 -76.065832,-51.56025 -4.63251,-8.92527 -7.3301,-16.08295 -9.08502,-24.10585 -5.9951195,-27.40769 -0.34112,-54.94029 16.04951,-78.154309 7.30764,-10.349799 25.0269,-26.196379 28.15329,-25.17787 0.50754,0.165345 0.7222,0.607049 0.47702,0.981565 -0.24518,0.374517 0.21804,0.844823 1.02937,1.045124 0.81133,0.200301 1.64987,0.994928 1.86341,1.765836 0.38554,1.391883 0.4039,1.39113 2.63391,-0.107968 2.31622,-1.557049 3.9582,-1.415965 3.2685,0.28084 -0.22275,0.548025 0.30541,1.317303 1.2226,1.78071 0.88812,0.448726 1.41324,0.50802 1.16692,0.131763 -0.48235,-0.736816 1.25804,-2.451804 1.88626,-1.858722 0.20827,0.196619 0.77238,-0.09038 1.25359,-0.637769 0.59635,-0.678368 0.62968,-1.13835 0.10468,-1.444671 -0.42364,-0.247178 -0.77025,-0.186639 -0.77025,0.134533 0,0.977183 -3.30103,0.515936 -5.17473,-0.723057 -1.98555,-1.312952 -4.37476,-1.545493 -4.37476,-0.425794 0,0.424633 0.62637,0.552543 1.46915,0.300013 0.84279,-0.25253 1.46916,-0.124621 1.46916,0.300013 0,0.678116 -0.41417,0.813115 -3.12195,1.017623 -0.5139,0.03881 -0.95086,-0.770407 -0.99235,-1.837756 -0.0711,-1.827999 0.0737,-1.907104 3.48924,-1.907104 3.56161,0 4.25254,-0.458954 2.78156,-1.847662 -0.55268,-0.521771 -0.44883,-1.052421 0.35437,-1.810695 1.35933,-1.283302 4.17882,-0.809181 3.6036,0.605975 -0.21727,0.534547 -0.0291,0.971905 0.41812,0.971905 0.44724,0 0.81317,-0.26006 0.81317,-0.57791 0,-0.317852 0.49584,-0.577911 1.10186,-0.577911 0.60603,0 1.10187,0.260059 1.10187,0.577911 0,0.31785 -0.49584,0.57791 -1.10187,0.57791 -0.60602,0 -1.10186,0.345459 -1.10186,0.767688 0,0.422229 0.48525,0.591894 1.07834,0.377034 0.59309,-0.21486 1.25626,-0.118867 1.47373,0.213319 0.21746,0.332185 -0.0199,0.746408 -0.52741,0.920494 -0.50754,0.174087 0.64736,0.160155 2.56644,-0.03096 2.48054,-0.247027 3.48924,-0.09948 3.48924,0.510398 0,0.471834 0.44317,0.697328 0.98483,0.501099 0.54166,-0.196229 1.4507,-0.07836 2.02009,0.261931 0.78567,0.469557 0.6368,0.621271 -0.61755,0.629331 -0.90904,0.0058 -1.6528,0.322689 -1.6528,0.70411 0,0.381421 0.49584,0.693493 1.10187,0.693493 1.45918,0 1.41803,1.817544 -0.0532,2.35054 -1.83508,0.664801 -3.91201,-0.737575 -3.46774,-2.341464 0.21269,-0.767834 0.69822,-1.396061 1.07896,-1.396061 0.38074,0 0.48796,-0.312072 0.23826,-0.693493 -0.78158,-1.193903 -1.75927,-0.765488 -2.86663,1.256132 -1.04468,1.907208 -1.01024,1.978875 1.58301,3.294089 1.45801,0.739456 3.12022,1.245575 3.69379,1.12471 0.69142,-0.145699 0.84672,0.08801 0.46085,0.693492 -0.47704,0.748527 -0.37152,0.752293 0.58502,0.02088 0.64188,-0.490799 1.00925,-1.461995 0.8164,-2.158213 -0.21104,-0.76188 0.13015,-1.440026 0.85697,-1.703335 0.66419,-0.240617 1.00187,-0.751761 0.75041,-1.135876 -0.27826,-0.425042 0.7098,-0.698387 2.52445,-0.698387 2.56343,0 2.98166,0.209628 2.98166,1.494468 0,1.349586 0.12462,1.395573 1.28551,0.474359 1.4617,-1.159923 5.752422,-1.601686 9.005382,-0.927175 1.74927,0.362718 2.20829,0.832892 2.25279,2.307538 0.0529,1.751713 0.10997,1.720563 1.05462,-0.57522 0.9477,-2.303217 1.02501,-2.344875 1.5132,-0.815367 0.42102,1.319062 0.85587,1.530967 2.39386,1.166546 1.44023,-0.34126 2.18546,-0.06972 3.18932,1.162111 1.68487,2.067498 1.85219,0.261192 0.24526,-2.647631 -0.60353,-1.092507 -1.06102,-2.766555 -1.01665,-3.720107 0.0545,-1.171714 0.18959,-1.340319 0.41663,-0.520119 0.18476,0.667486 0.66454,1.213612 1.06615,1.213612 0.40162,0 0.52039,0.624143 0.26393,1.386985 -0.26749,0.795651 -0.13201,1.386985 0.31778,1.386985 0.43125,0 0.78408,0.434719 0.78408,0.966042 0,1.206077 2.01009,2.009597 2.38327,0.952693 0.17535,-0.496661 0.65663,-0.551442 1.33297,-0.151723 0.58218,0.344077 1.63941,0.535362 2.3494,0.425077 1.37139,-0.213023 3.48385,1.371279 3.48385,2.612822 0,0.408666 0.32521,0.743028 0.72269,0.743028 0.39748,0 0.18531,-1.063885 -0.4715,-2.364189 -0.74445,-1.473815 -0.97381,-2.844986 -0.60901,-3.640836 0.51527,-1.124113 0.62017,-1.140203 0.87804,-0.134671 0.26555,1.035499 0.49893,1.044918 2.50312,0.101016 2.32752,-1.09618 4.04644,-0.543668 2.06583,0.664021 -1.01026,0.616011 -0.92305,0.922818 0.69701,2.452276 1.1084,1.046405 1.96511,1.427078 2.13417,0.948294 0.46637,-1.320869 1.62914,-0.901834 1.62914,0.587104 0,0.924657 -0.48972,1.386985 -1.46915,1.386985 -1.71374,0 -1.90372,0.876667 -0.43873,2.024508 0.64912,0.508584 1.12483,0.54993 1.28551,0.111727 0.1403,-0.382593 1.65948,-0.785708 3.37595,-0.89581 1.82603,-0.117129 3.12133,-0.54677 3.12195,-1.035529 0.001,-1.058015 3.68839,-4.583394 4.24449,-4.0584 0.22808,0.215331 -0.25805,1.092442 -1.08029,1.949135 -1.13611,1.183704 -1.35974,2.008533 -0.93158,3.435971 0.37871,1.262562 0.2491,2.124615 -0.39534,2.629542 -0.69701,0.546115 -1.04023,0.520445 -1.25718,-0.09403 -0.3629,-1.027798 -2.04817,-0.170044 -2.04817,1.042458 0,0.47672 0.47359,1.472535 1.05241,2.212922 0.84351,1.078949 1.2372,1.174088 1.98336,0.479294 0.51202,-0.476776 1.51558,-0.866866 2.23013,-0.866866 0.78221,0 1.14931,-0.368708 0.92254,-0.926596 -0.25343,-0.623504 0.17461,-0.889285 1.30856,-0.81253 1.87033,0.126598 2.76147,2.734174 1.3801,4.038286 -1.25218,1.182162 -0.93311,2.555288 0.5938,2.555288 0.76481,0 1.59121,0.49363 1.83644,1.096957 0.62479,1.537127 0.57722,1.677013 -0.57031,1.677013 -1.60198,0 -1.95569,2.768905 -0.60925,4.769335 1.609,2.390524 2.45839,2.937958 4.01281,2.586278 0.96662,-0.218692 1.28551,0.144203 1.28551,1.462881 0,1.559986 0.1373,1.648578 1.24287,0.801942 0.95677,-0.732686 1.1093,-0.742174 0.66262,-0.04121 -0.34288,0.538059 -0.10287,1.408574 0.58669,2.127913 1.07377,1.120136 1.02111,1.403971 -0.65933,3.554293 -1.00445,1.285319 -2.23139,2.573308 -2.72651,2.862199 -0.49513,0.288891 -0.61663,0.776278 -0.27,1.083084 0.34661,0.3068 0.7716,0.18527 0.9444,-0.270082 0.1728,-0.455349 0.78866,-0.656014 1.36859,-0.445923 0.57991,0.210089 1.0544,0.03652 1.0544,-0.385706 0,-0.422229 0.32818,-0.767688 0.72929,-0.767688 0.4011,0 0.67744,1.249106 0.61408,2.775789 -0.12864,3.099187 0.58293,4.297747 1.63385,2.752067 0.47587,-0.69992 0.55278,-0.32664 0.24497,1.1891 -0.40912,2.01467 -0.30676,2.17424 1.16211,1.81161 1.12831,-0.27856 1.5036,-0.78448 1.25301,-1.68915 -0.19886,-0.71792 0.0252,-1.29148 0.50444,-1.29148 0.89585,0 0.9886,3.50071 0.17394,6.56503 -0.45738,1.72042 0.56762,3.02434 1.38995,1.76819 0.58494,-0.89351 5.52679,-0.90151 6.98588,-0.0113 0.97268,0.59343 0.96928,0.6735 -0.0289,0.68287 -0.74831,0.007 -1.12103,0.65572 -1.10186,1.91772 0.0212,1.39977 -0.31302,1.88148 -1.25656,1.81079 -0.82898,-0.0621 -1.2855,0.39523 -1.2855,1.28781 0,0.94542 -0.34925,1.2576 -1.10187,0.98494 -1.6625,-0.60227 -1.27906,0.44443 0.6463,1.76422 1.67267,1.14659 1.69661,1.13465 1.39005,-0.69349 l -0.31194,-1.86018 1.37766,1.60162 1.37764,1.60162 1.06574,-1.88847 c 0.82897,-1.46893 0.86175,-1.95313 0.14752,-2.17953 -0.50502,-0.16008 -0.90778,-0.96722 -0.89501,-1.79362 0.0218,-1.41298 0.13466,-1.3829 1.89222,0.50443 1.26065,1.35371 1.59788,2.16519 1.03606,2.49301 -0.50011,0.29179 -0.63734,1.2218 -0.34344,2.32732 0.30925,1.16324 0.18968,1.84132 -0.32469,1.84132 -0.44782,0 -0.81421,0.34546 -0.81421,0.76769 0,0.42223 0.47891,0.59419 1.06426,0.38214 1.21523,-0.44025 1.55837,0.41288 2.25713,5.61173 0.32992,2.45469 0.22758,3.64083 -0.31415,3.64083 -0.44193,0 -0.80351,0.78018 -0.80351,1.73373 0,0.95355 0.33275,1.73373 0.73943,1.73373 0.40669,0 1.44818,0.76954 2.31441,1.71008 0.86625,0.94054 1.85574,1.54627 2.19888,1.34606 0.34314,-0.20021 0.62389,-0.0198 0.62389,0.4008 0,0.42065 0.4132,0.68566 0.91822,0.58892 1.36716,-0.2619 4.33185,1.4695 3.82968,2.23658 -0.83199,1.2709 0.47471,3.4261 2.09643,3.45774 0.88181,0.0172 2.59497,0.43135 3.80702,0.92033 l 2.20373,0.88906 -3.6192,0.4702 c -3.32165,0.43153 -6.29759,1.98687 -6.29759,3.29133 0,0.82445 3.71795,4.80018 4.48893,4.80018 0.377,0 1.66986,-1.46542 2.87301,-3.25649 2.40312,-3.57739 2.75451,-3.52794 1.12317,0.15805 -0.58541,1.32272 -1.45313,2.40495 -1.92826,2.40495 -0.57559,0 -0.71082,0.7225 -0.40522,2.16504 0.3944,1.86172 0.30557,2.04509 -0.63407,1.30888 -0.88625,-0.69439 -1.18091,-0.6392 -1.55945,0.29209 -0.2567,0.63154 -0.25945,1.34394 -0.006,1.5831 0.25333,0.23917 -0.0707,1.20035 -0.72002,2.13596 -0.64935,0.9356 -0.83237,1.4979 -0.40672,1.24955 0.95374,-0.55649 2.31282,1.70632 2.32802,3.87602 0.009,1.28828 0.15102,1.40019 0.71781,0.56571 0.38861,-0.57213 0.52655,-1.58636 0.30654,-2.25385 -0.22001,-0.66748 -0.0742,-1.21361 0.32398,-1.21361 0.39819,0 1.24687,-0.18942 1.88594,-0.42094 0.74129,-0.26855 1.16194,-0.0444 1.16194,0.61929 0,0.57214 -0.49583,1.21987 -1.10186,1.43942 -1.41633,0.5131 -1.41022,2.13301 0.0132,3.47674 0.61324,0.57894 1.06993,1.30339 1.01487,1.60989 -0.0551,0.3065 -0.0334,0.71331 0.0481,0.90402 0.48478,1.1342 0.41951,3.46746 -0.097,3.46746 -0.33649,0 -0.61181,0.35569 -0.61181,0.79042 0,0.43472 -0.54634,1.16756 -1.21409,1.62852 -1.94311,1.34137 -0.48359,2.63035 2.40008,2.11962 2.01417,-0.35673 2.48689,-0.22178 2.48689,0.70992 0,0.88372 -0.51082,1.0796 -2.20373,0.84502 -1.21205,-0.16794 -2.20373,-0.0473 -2.20373,0.26804 0,0.31537 0.68339,0.57339 1.51866,0.57339 1.23314,0 1.42477,0.29335 1.0193,1.56035 -0.40738,1.27298 -0.3218,1.40071 0.4647,0.6935 1.6701,-1.50174 2.06859,-0.94601 0.90314,1.25952 -0.74945,1.41832 -1.49402,1.99221 -2.23595,1.72343 -0.8554,-0.30989 -1.01382,-0.0401 -0.68585,1.1677 0.41378,1.52392 0.38481,1.51906 -0.97351,-0.16307 -1.25252,-1.55111 -1.27534,-1.77545 -0.21667,-2.12972 1.97814,-0.66196 1.80698,-2.72473 -0.2261,-2.72473 -0.97458,0 -1.77173,-0.31207 -1.77173,-0.69349 0,-0.38142 0.33056,-0.69349 0.73457,-0.69349 1.80921,0 0.50004,-1.05554 -1.47061,-1.1857 -1.21124,-0.08 -2.20227,0.1276 -2.20227,0.46134 0,0.33373 -0.99167,1.49042 -2.20373,2.57043 -2.52988,2.25425 -2.94618,4.0178 -0.79639,3.37364 0.77403,-0.23193 1.61102,-0.11055 1.85997,0.26973 0.24894,0.38028 0.90802,0.52644 1.4646,0.3248 0.60163,-0.21795 1.21502,0.23732 1.5127,1.12279 0.58999,1.75491 0.5962,1.74788 -2.08234,2.35536 -1.36534,0.30965 -1.91915,0.2239 -1.60944,-0.2492 0.94415,-1.44223 -0.35923,-1.95836 -3.21641,-1.27369 -1.96895,0.47182 -3.00952,1.15962 -3.29981,2.18113 -0.80797,2.84313 -0.43595,4.4582 1.26995,5.51344 1.18277,0.73164 1.71401,1.7236 1.71401,3.20048 0,1.17712 -0.19595,2.14022 -0.43545,2.14022 -0.23949,0 -0.87825,0.66939 -1.41945,1.48753 -0.86154,1.30239 -0.83783,1.43457 0.19058,1.06201 2.39155,-0.8664 1.01263,0.8551 -5.25294,6.55798 -11.57649,10.53685 -25.35778,17.88794 -40.79879,21.76254 -3.69395,0.92692 -5.20256,1.04933 -5.81432,0.47179 -0.61177,-0.57756 -1.03288,-0.51777 -1.62298,0.23042 -0.52013,0.65946 -3.22043,1.24902 -7.77534,1.69759 -7.97263,0.78514 -10.53739,0.77321 -18.73169,-0.0872 z m 79.65103,-35.67785 c 0.1759,-0.16606 -0.0624,-0.66276 -0.5295,-1.10376 -1.07298,-1.01297 -4.90076,0.44 -4.15604,1.57757 0.43829,0.66953 3.83869,0.32567 4.68554,-0.47381 z m -6.5607,-1.96301 c 0,-0.5449 0.53519,-1.49596 1.18931,-2.11351 1.40264,-1.32419 0.94043,-2.04164 -0.95031,-1.47511 -0.90712,0.27181 -1.34087,1.07746 -1.34087,2.49055 0,1.14882 0.24792,2.08877 0.55093,2.08877 0.30302,0 0.55094,-0.44582 0.55094,-0.9907 z m -50.31126,-2.82351 c -0.35095,1.05464 -0.2561,1.19457 0.39584,0.58396 1.02628,-0.9612 -0.4481,-6.05503 -1.56412,-5.40387 -0.37146,0.21674 -0.67538,0.0636 -0.67538,-0.34035 0,-0.41437 -1.52058,-0.73274 -3.48923,-0.73056 -3.86866,0.004 -8.99856,1.14413 -8.99856,1.99944 0,0.74557 5.15641,2.15765 7.87903,2.15765 1.48424,0 2.64447,0.5597 3.56869,1.72158 l 1.36944,1.72158 0.98792,-1.54821 c 0.83158,-1.3032 0.91488,-1.32872 0.52637,-0.16122 z m 51.03459,-9.53552 c -0.0172,-1.32749 -1.20076,-2.80046 -2.01819,-2.51175 -0.44511,0.1572 -0.48751,0.86712 -0.10863,1.81826 0.66156,1.66075 2.14564,2.14467 2.12682,0.69349 z m -53.24553,-0.61012 c 0.80803,-0.0385 2.15928,0.14506 3.00275,0.40812 2.00448,0.62513 6.0098,-2.97124 8.31424,-7.46537 0.9192,-1.7926 1.9366,-3.10447 2.2609,-2.91526 0.32429,0.18921 0.80586,-0.51201 1.07015,-1.55828 0.26429,-1.04627 0.64724,-2.52646 0.85098,-3.2893 0.36751,-1.37605 0.36134,-1.37624 -0.78284,-0.0236 -1.09202,1.29101 -1.12971,1.23576 -0.70968,-1.04024 0.24397,-1.32202 0.72077,-3.24058 1.05957,-4.26349 0.33878,-1.02289 0.43719,-2.50523 0.21868,-3.29408 -0.29862,-1.07805 -0.051,-1.43427 0.99716,-1.43427 1.01243,0 1.63617,-0.80746 2.27672,-2.94734 1.73187,-5.78566 1.61364,-6.94647 -0.82718,-8.12128 -3.04852,-1.46731 -3.11493,-2.2774 -0.42389,-5.17091 2.0198,-2.17177 2.19681,-2.65844 1.34792,-3.70604 -0.53747,-0.66327 -1.02344,-1.29131 -1.07994,-1.39565 -0.0565,-0.10433 -0.67359,0.0171 -1.37132,0.26988 -0.88723,0.32143 -1.00827,0.61147 -0.40262,0.96485 0.54743,0.31941 0.16479,0.6714 -1.04028,0.95694 -1.04843,0.24842 -1.90624,0.73494 -1.90624,1.08116 0,0.93136 -4.32119,2.79927 -5.4934,2.37462 -2.15115,-0.77931 -0.17292,2.49754 2.35926,3.90801 1.42159,0.79185 2.38467,1.62859 2.14017,1.85942 -0.81659,0.77092 -7.43157,-2.9573 -8.29597,-4.67564 -0.469,-0.9323 -1.29774,-2.63131 -1.84164,-3.77557 -1.02944,-2.16571 -2.67146,-3.75429 -3.91973,-3.79216 -0.39988,-0.0121 0.17859,0.77076 1.28551,1.73975 2.0599,1.80321 2.95527,4.00108 1.00863,2.47587 -0.55218,-0.43264 -1.78745,-0.7049 -2.74505,-0.60504 -1.56293,0.163 -1.82378,-0.2089 -2.54932,-3.63461 -0.85883,-4.05505 -2.3892,-6.96919 -3.61152,-6.87704 -0.40783,0.0307 -2.06073,0.73413 -3.6731,1.56306 -2.09559,1.07736 -3.06583,2.09968 -3.40233,3.58493 -0.25891,1.14277 -0.50985,1.67553 -0.55765,1.18389 -0.0584,-0.60088 -0.60493,-0.43826 -1.6673,0.49614 -1.78017,1.56575 -2.82706,1.31267 -2.82706,-0.6834 0,-0.74033 -0.30353,-1.34606 -0.6745,-1.34606 -0.37097,0 -1.25476,-0.21021 -1.96397,-0.46714 -0.976142,-0.35363 -1.180152,-0.19819 -0.839582,0.6397 0.34944,0.85969 -0.19531,1.20975 -2.43963,1.56773 -2.60965,0.41623 -4.84158,1.72717 -2.94059,1.72717 2.87943,0 -2.27626,3.14821 -6.38419,3.89837 -1.31305,0.23978 -2.38737,0.73005 -2.38737,1.0895 0,0.35945 -0.66112,0.45545 -1.46915,0.21333 -0.80804,-0.24212 -1.46916,-0.14351 -1.46916,0.21913 0,0.36264 -0.65945,0.82215 -1.46544,1.02113 -2.25945,0.55781 -2.59497,2.43189 -0.83723,4.6764 0.86246,1.10129 1.5681,2.46744 1.5681,3.0359 0,1.59029 4.37524,7.34451 5.58442,7.34451 0.59008,0 1.27802,0.54613 1.52876,1.21361 0.25074,0.66749 0.91924,1.72482 1.48556,2.34963 0.56632,0.6248 1.08605,1.84259 1.15495,2.70619 0.0689,0.8636 0.71228,1.7151 1.42969,1.89222 0.71743,0.17711 1.30441,0.5977 1.30441,0.93464 0,0.33693 0.46048,0.61261 1.02327,0.61261 0.56281,0 1.21642,0.47517 1.45249,1.05594 0.36081,0.88767 0.69525,0.9153 2.09868,0.17338 0.9182,-0.48542 1.912322,-1.19465 2.209152,-1.57607 0.32867,-0.42235 0.54407,-0.33519 0.55093,0.22291 0.008,0.68953 0.29562,0.64793 1.15995,-0.16805 0.63178,-0.59646 0.96028,-1.37227 0.73,-1.72404 -0.23029,-0.35177 -0.004,-0.77631 0.50409,-0.94342 0.61638,-0.20294 0.10336,-1.27672 -1.545,-3.23376 -1.9085,-2.26589 -2.375342,-3.36632 -2.05987,-4.85545 0.22436,-1.05905 0.0336,-2.27898 -0.424052,-2.71097 -0.61959,-0.58494 -0.4219,-1.19755 0.774362,-2.39969 0.88349,-0.88783 1.60634,-1.97442 1.60634,-2.41464 0,-0.44022 0.45322,-0.63621 1.00715,-0.43554 0.55393,0.20067 1.46297,-0.0432 2.02008,-0.54188 0.55712,-0.49871 2.23667,-1.76941 3.73234,-2.82377 l 2.71941,-1.917 0.4469,2.26375 c 0.52079,2.63808 -1.1501,7.8917 -2.42993,7.64023 -0.95835,-0.18831 -3.82307,1.88435 -3.82307,2.76603 0,0.87214 3.94574,-0.22217 4.9109,-1.36199 0.69222,-0.81748 1.67117,-0.91069 4.77475,-0.45467 2.1472,0.31551 4.56066,0.49421 5.36324,0.39711 1.77409,-0.21463 6.25382,1.96023 6.25382,3.03617 0,1.25238 -2.79069,3.27236 -3.94379,2.85462 -1.49422,-0.54132 -3.6692,1.95023 -3.19545,3.66053 0.26217,0.94643 0.0347,1.40979 -0.69209,1.40979 -0.74716,0 -0.93857,-0.42839 -0.61777,-1.38262 0.3462,-1.02976 0.19032,-1.28318 -0.61077,-0.99296 -0.59157,0.21431 -1.27725,0.0816 -1.52372,-0.29488 -0.57119,-0.87251 -4.8407,1.06631 -4.84715,2.20113 -0.002,0.44884 -1.01901,1.3611 -2.25878,2.02726 -1.88742,1.01414 -2.09351,1.36281 -1.26682,2.14327 1.35809,1.28213 7.46951,3.56712 7.84809,2.4949 0.20852,-0.59058 2.28102,-1.92014 5.00678,-1.06542 2.05879,0.64558 4.56059,0.98012 5.55954,0.74342 1.32804,-0.31468 2.03548,0.0245 3.44946,1.26162 2.01122,1.75968 4.59668,-2.21936 3.37907,-0.44062 -0.60855,0.88899 -1.77565,3.43459 -1.77565,3.43459 0,0 -1.25127,0.96427 -1.75629,0.96192 -0.50502,-0.002 -1.83997,-0.45818 -2.96654,-1.01295 -1.50707,-0.74213 -2.55227,-0.82778 -3.95549,-0.32411 -1.04895,0.37651 -2.93696,0.62021 -4.19558,0.54158 -4.85602,-0.3034 -8.47402,0.1503 -9.58845,1.2024 -1.511,1.42649 -0.99573,2.09837 3.14383,4.09933 2.59203,1.25292 4.22311,1.57783 6.72723,1.34004 1.81808,-0.17264 3.96671,-0.34548 4.77475,-0.38408 z m 11.73755,-32.32108 c 1.64897,-1.52593 2.61956,-2.08257 2.33643,-1.33996 -0.26638,0.69868 -0.48432,1.5753 -0.48432,1.94803 0,0.37274 -0.29311,0.50668 -0.65135,0.29767 -4.12912,2.76307 -9.6384,5.14058 -1.20076,-0.90574 z m 46.66125,31.71759 c 0,-0.38143 -0.35006,-0.6935 -0.77793,-0.6935 -0.42786,0 -0.57363,0.31207 -0.32393,0.6935 0.2497,0.38142 0.59977,0.69349 0.77793,0.69349 0.17817,0 0.32393,-0.31207 0.32393,-0.69349 z m 3.67429,-2.77316 c -0.70218,-0.4097 -0.66292,-0.67069 0.17052,-1.13341 0.59551,-0.33062 1.4877,-1.32887 1.98263,-2.21833 0.76503,-1.37485 0.69854,-1.76126 -0.44369,-2.57854 -2.85995,-2.04634 -5.38375,-0.72676 -5.38375,2.8149 0,2.30951 1.15463,4.14245 2.93831,4.6645 1.38075,0.40412 1.96737,-0.83064 0.73598,-1.54912 z m -11.02005,-1.3878 c 0,-0.38142 -0.33056,-0.69349 -0.73457,-0.69349 -0.40402,0 -0.73458,0.31207 -0.73458,0.69349 0,0.38142 0.33056,0.69349 0.73458,0.69349 0.40401,0 0.73457,-0.31207 0.73457,-0.69349 z m 2.08735,-4.24272 c 0.64444,-0.97421 0.72548,-1.70107 0.24069,-2.15875 -1.08607,-1.02533 -2.32804,0.007 -2.32804,1.9347 0,2.08238 0.80115,2.16838 2.08735,0.22405 z m 12.26709,-1.95257 c -0.26631,-0.4068 -0.83572,-0.73963 -1.26536,-0.73963 -0.4871,0 -0.43137,0.39791 0.14803,1.057 1.0075,1.14606 1.90794,0.8903 1.11733,-0.31737 z m -0.58987,-3.99245 c -0.68299,-0.64478 -1.44805,-0.97761 -1.70013,-0.73963 -0.72296,0.68253 0.38689,1.91197 1.72598,1.91197 1.12132,0 1.11931,-0.0912 -0.0258,-1.17234 z m 5.7017,-0.21465 c 0.2497,-0.38142 0.10393,-0.69349 -0.32393,-0.69349 -0.42786,0 -0.77793,0.31207 -0.77793,0.69349 0,0.38142 0.14577,0.6935 0.32393,0.6935 0.17817,0 0.52824,-0.31208 0.77793,-0.6935 z m -19.46627,-3.14511 c 0,-1.44773 -1.28119,-1.25621 -2.17788,0.32555 -1.10387,1.94723 -0.94509,2.26817 0.70873,1.43258 0.80803,-0.40826 1.46915,-1.19942 1.46915,-1.75813 z m -34.75786,0.24111 c -0.23449,-0.55322 -0.40856,-0.38889 -0.4438,0.41899 -0.0319,0.73105 0.14171,1.14065 0.38581,0.91021 0.2441,-0.23045 0.27019,-0.82858 0.058,-1.3292 z m 45.77651,-0.25764 c 0,-0.54962 -0.33056,-0.99931 -0.73458,-0.99931 -0.40402,0 -0.73458,0.64256 -0.73458,1.42791 0,0.78536 0.33056,1.23504 0.73458,0.99931 0.40402,-0.23573 0.73458,-0.87829 0.73458,-1.42791 z m -5.87661,-4.46677 c 0,-0.38142 -0.68063,-0.6935 -1.51251,-0.6935 -0.83188,0 -1.30821,0.31208 -1.05851,0.6935 0.2497,0.38142 0.93033,0.69349 1.51251,0.69349 0.58218,0 1.05851,-0.31207 1.05851,-0.69349 z m 5.53952,-2.82011 c 0.26631,-0.4068 0.30122,-0.91239 0.0776,-1.12353 -0.62559,-0.59059 -4.14794,0.41388 -4.14794,1.18288 0,0.91975 3.46245,0.86926 4.07037,-0.0594 z m 2.3501,-4.98168 c -0.34108,-0.94424 -3.42447,-0.78602 -4.5473,0.23333 -0.42611,0.38684 0.38434,0.63353 2.08129,0.63353 1.90062,0 2.68016,-0.27403 2.46601,-0.86686 z m -7.02038,-4.83134 c -0.5271,-0.49762 -0.86924,-0.53856 -0.86924,-0.10402 0,0.39414 0.22037,0.92466 0.48972,1.17894 0.26934,0.25428 0.6605,0.30109 0.86924,0.10402 0.20875,-0.19706 -0.0116,-0.72758 -0.48972,-1.17894 z m -37.82242,-1.78463 c 0.84884,-0.50946 0.92126,-2.49281 0.1187,-3.25048 -0.6568,-0.62007 -3.01166,2.27039 -2.49396,3.0612 0.56633,0.86509 1.16923,0.91313 2.37526,0.18928 z m 40.62606,-0.14559 c 0,-0.38142 -0.35007,-0.69349 -0.77793,-0.69349 -0.42786,0 -0.57363,0.31207 -0.32394,0.69349 0.2497,0.38143 0.59977,0.6935 0.77793,0.6935 0.17817,0 0.32394,-0.31207 0.32394,-0.6935 z m 0.51012,-2.35297 c -0.0786,-0.40414 0.60092,-0.84195 1.50996,-0.97288 0.90904,-0.13094 1.6528,-0.56227 1.6528,-0.95851 0,-0.93032 -3.83152,-0.0544 -4.5725,1.04526 -0.81391,1.20795 -0.68868,1.62096 0.49152,1.62096 0.58358,0 0.99678,-0.33067 0.91822,-0.73483 z m -2.71385,-1.78622 c 0,-0.36944 -0.53399,-0.47827 -1.18664,-0.24183 -0.96515,0.34964 -1.08807,0.11907 -0.65859,-1.23538 0.51507,-1.62443 0.49971,-1.63125 -0.62645,-0.27828 -1.61069,1.93507 -1.48189,2.42722 0.63524,2.42722 1.01004,0 1.83644,-0.30228 1.83644,-0.67173 z m -5.50932,-0.71525 c 0.24969,-0.38142 -0.0613,-0.6935 -0.69122,-0.6935 -0.62987,0 -1.14522,0.31208 -1.14522,0.6935 0,0.38142 0.31105,0.69349 0.69122,0.69349 0.38017,0 0.89552,-0.31207 1.14522,-0.69349 z m 10.71143,-1.38699 c 1.12923,0 0.75233,-1.21039 -0.52047,-1.6715 -1.38087,-0.50025 -3.40493,0.8165 -2.76281,1.79736 0.23843,0.36421 0.92294,0.48488 1.52115,0.26816 0.5982,-0.21671 1.39116,-0.39402 1.76213,-0.39402 z m -27.2394,-2.21917 c 0,-1.12029 -0.21722,-1.32061 -0.81749,-0.75392 -0.44961,0.42447 -0.59538,1.11102 -0.32393,1.52568 0.75984,1.16069 1.14142,0.90268 1.14142,-0.77176 z m -63.295512,-2.352 c 0.68564,-0.19902 0.35547,-0.90903 -1.09948,-2.36434 -2.23195,-2.23249 -5.14398,-2.89576 -4.37167,-0.99572 0.24238,0.59629 -0.0417,1.96476 -0.6312,3.04104 l -1.07189,1.95686 3.09717,-0.67671 c 1.70344,-0.37219 3.53813,-0.8047 4.07707,-0.96113 z m 39.102792,1.07931 c 1.77867,-0.89868 1.86764,-3.82631 0.13535,-4.45387 -1.4527,-0.52628 -2.12094,-0.31509 -1.80795,0.57137 0.11667,0.33044 -0.29653,1.3337 -0.91822,2.22945 -0.6217,0.89576 -1.13035,1.79567 -1.13035,1.9998 0,0.62119 2.21369,0.41491 3.72117,-0.34675 z m -45.959302,-4.83005 c -0.2497,-0.38142 -1.09561,-0.69349 -1.8798,-0.69349 -0.78419,0 -1.4258,0.31207 -1.4258,0.69349 0,0.38142 0.84591,0.69349 1.8798,0.69349 1.06613,0 1.68328,-0.30017 1.4258,-0.69349 z m 83.141612,-4.98448 c -0.23449,-0.55321 -0.40855,-0.38889 -0.4438,0.41899 -0.0319,0.73105 0.14172,1.14065 0.38582,0.91021 0.24409,-0.23044 0.27018,-0.82858 0.058,-1.3292 z m 0.41643,-5.1516 c 0.70703,-0.23544 1.28551,-0.73713 1.28551,-1.11488 0,-0.37774 -0.49584,-0.50718 -1.10187,-0.28762 -0.60602,0.21954 -1.10186,0.0969 -1.10186,-0.27255 0,-1.44197 -1.31761,-0.57432 -1.65451,1.08948 -0.23276,1.14951 -0.0712,1.6314 0.4653,1.38744 0.45205,-0.20559 1.4004,-0.56643 2.10743,-0.80187 z m -67.1489,-6.20571 c 1.35204,-0.28272 1.54095,-0.56015 0.88756,-1.3034 -0.61855,-0.70363 -0.61349,-1.01238 0.0199,-1.2117 0.57787,-0.18185 0.36197,-1.12703 -0.67446,-2.95263 -0.83843,-1.47683 -1.29995,-3.02519 -1.0256,-3.4408 0.27435,-0.4156 0.39658,-1.50199 0.27164,-2.41418 -0.1582,-1.15491 0.0718,-1.5509 0.75723,-1.30407 0.69951,0.25187 1.00113,-0.33892 1.04213,-2.04127 0.0317,-1.31766 0.3623,-2.603247 0.73458,-2.856887 0.37228,-0.25363 1.1727,-1.07075 1.77872,-1.815833 1.09311,-1.343926 1.086,-1.343926 -0.89514,0 -1.09834,0.745083 -2.00737,1.588743 -2.02007,1.874803 -0.0127,0.28607 -0.68422,0.52012 -1.49225,0.52012 -1.28293,0 -1.46915,-0.46233 -1.46915,-3.647385 0,-2.973652 -0.28982,-3.818258 -1.56893,-4.572403 -1.3983,-0.824413 -1.76103,-0.729425 -3.335332,0.873421 -0.97151,0.989138 -2.19299,1.798433 -2.71439,1.798433 -1.12451,0 -2.39788,2.245136 -3.0483,5.374564 -0.31691,1.524847 -0.18653,2.253847 0.4031,2.253847 0.50697,0 0.67761,0.4771 0.40795,1.14053 -0.57647,1.41823 1.54389,3.75431 2.94644,3.24621 0.72428,-0.26239 1.03285,0.16475 1.03285,1.42972 0,1.20666 -1.09443,2.85195 -3.3056,4.96944 -3.51931,3.3702 -3.91552,3.95487 -2.27803,3.36165 0.56516,-0.20474 1.23687,-0.0526 1.49268,0.33823 0.25581,0.39076 0.91693,0.5468 1.46915,0.34674 0.55222,-0.20005 1.18952,-0.0804 1.41622,0.26589 0.40332,0.61608 5.757392,0.47998 9.167102,-0.23304 z m -16.041852,-2.3825 c 0,-0.87686 -1.50109,-0.87686 -2.93831,0 -0.85863,0.52385 -0.65593,0.67459 0.91822,0.68287 1.11105,0.006 2.02009,-0.30145 2.02009,-0.68287 z m 30.117622,-1.08117 c 0,-0.59465 -0.33595,-0.88515 -0.74656,-0.64558 -0.41061,0.23958 -0.55638,0.7261 -0.32393,1.08117 0.6297,0.9619 1.07049,0.78255 1.07049,-0.43559 z m 21.31744,-2.05631 c 0.51106,-0.58135 0.7818,-1.19615 0.60166,-1.36622 -0.18016,-0.17008 -0.88515,0.30557 -1.56665,1.057 -0.6815,0.75142 -0.95224,1.36622 -0.60165,1.36622 0.3506,0 1.05558,-0.47565 1.56664,-1.057 z m 23.49171,-3.8869 c 0,-0.28481 -0.60268,-0.47498 -1.33928,-0.4226 -1.01043,0.0719 -1.25446,0.51408 -0.99387,1.80103 0.3271,1.61543 0.39804,1.63782 1.33927,0.42261 0.54663,-0.70576 0.99388,-1.51622 0.99388,-1.80104 z m 1.23637,-1.42756 c -0.23449,-0.55323 -0.40856,-0.3889 -0.4438,0.41898 -0.0319,0.73106 0.14171,1.14065 0.38581,0.91021 0.24409,-0.23044 0.27019,-0.82858 0.058,-1.32919 z m -41.16484,-0.9107 c 0.0583,-0.95329 -0.18966,-1.73324 -0.55094,-1.73324 -0.36127,0 -0.65686,0.78017 -0.65686,1.73373 0,2.25931 1.0697,2.25887 1.2078,-4.9e-4 z m -6.23999,-4.13741 c 0.30648,-1.081867 0.24304,-2.521267 -0.14096,-3.198654 -0.74953,-1.322187 -0.23236,-3.412577 0.84428,-3.412577 0.91093,0 0.82488,-1.900076 -0.11076,-2.445998 -1.80243,-1.051656 -2.74802,1.139614 -2.72208,6.307969 0.0267,5.33154 1.03079,6.62777 2.12952,2.74926 z m 4.69997,1.19055 c -0.3924,-0.97307 -0.30606,-1.04179 0.43561,-0.34674 0.50876,0.47677 2.0985,0.83066 3.53276,0.78642 1.43426,-0.0443 2.02927,-0.22317 1.32224,-0.3976 -0.70703,-0.17443 -1.28551,-0.56982 -1.28551,-0.87864 0,-0.30882 -1.0717,-0.51061 -2.38157,-0.44842 -1.60664,0.0763 -2.46074,0.50118 -2.62488,1.30584 -0.13382,0.65601 0.14685,1.19276 0.62372,1.19276 0.52246,0 0.67254,-0.48231 0.37763,-1.21362 z m 18.69662,-2.179647 c 0,-0.6487 -1.7453,-1.46118 -3.13878,-1.46118 -0.4482,0 -0.17324,0.45818 0.61101,1.01818 1.64341,1.173487 2.52777,1.328477 2.52777,0.443 z M 117.83542,97.03381 c -0.71928,-1.769567 -1.78389,-1.237845 -1.39242,0.695447 0.24128,1.191536 0.60506,1.551786 1.09754,1.086846 0.40516,-0.38249 0.53785,-1.184523 0.29488,-1.782293 z m 6.85787,1.761313 c 0,-0.34061 -0.56921,-0.82551 -1.26491,-1.077546 -1.04582,-0.37887 -1.08581,-0.562758 -0.23089,-1.06158 0.85594,-0.49941 0.86854,-0.79161 0.0731,-1.696425 -0.73904,-0.840694 -0.7623,-1.319032 -0.10074,-2.071591 0.62794,-0.7143 0.63888,-1.107632 0.0405,-1.456762 -0.48287,-0.281737 -1.00101,0.176326 -1.26095,1.114735 -0.4157,1.500742 -0.47366,1.514824 -1.00079,0.243149 -0.37456,-0.903605 -0.5766,-0.162177 -0.61116,2.242755 -0.0538,3.745085 -0.17776,3.605405 3.80489,4.288115 0.30301,0.0519 0.55093,-0.18424 0.55093,-0.52485 z m -52.158382,-9.58359 c -0.8004,-1.178444 -0.82113,-1.176932 -0.41928,0.03059 0.23252,0.698682 0.44885,1.634897 0.48075,2.080477 0.0419,0.584725 0.15852,0.576213 0.41928,-0.03059 0.1987,-0.462405 -0.0176,-1.39862 -0.48075,-2.080477 z m 45.846592,-2.91568 c -0.47571,-0.459131 -0.79542,0.138422 -1.26774,2.369433 l -0.44044,2.080477 1.00379,-2.080477 c 0.55208,-1.144263 0.86905,-2.210508 0.70439,-2.369433 z m 35.49178,2.009031 c -0.12443,-1.559441 -0.60643,-1.718697 -1.79777,-0.59399 -0.61096,0.576791 -0.60141,1.008466 0.0367,1.660942 1.11723,1.142314 1.8995,0.668359 1.76104,-1.066952 z m -43.87151,0.707148 c 0,-0.381421 -0.35007,-0.693493 -0.77793,-0.693493 -0.42786,0 -0.57363,0.312072 -0.32393,0.693493 0.24969,0.381421 0.59976,0.693492 0.77793,0.693492 0.17816,0 0.32393,-0.312071 0.32393,-0.693492 z m 16.89525,-0.693493 c 0,-0.381421 -0.49584,-0.693492 -1.10186,-0.693492 -0.60603,0 -1.10187,0.312071 -1.10187,0.693492 0,0.381421 0.49584,0.693493 1.10187,0.693493 0.60602,0 1.10186,-0.312072 1.10186,-0.693493 z m -11.042,-1.907104 c -0.0276,-2.25719 -1.43818,-4.228553 -2.7313,-3.817286 -0.50502,0.160618 -0.91822,-0.06446 -0.91822,-0.500179 0,-0.435716 -0.344,-0.591495 -0.76446,-0.346175 -1.44966,0.845829 1.59035,6.503175 3.51912,6.548951 0.52303,0.01241 0.90816,-0.798994 0.89486,-1.885311 z m 11.47274,-1.293054 c 0.0349,-0.337728 0.32364,-1.173635 0.64168,-1.857571 0.31803,-0.683937 0.35901,-1.450488 0.0911,-1.703447 -0.26795,-0.252959 -0.67191,0.20702 -0.89771,1.022176 -0.42841,1.546607 -2.58277,2.851992 -2.27704,1.379715 0.0962,-0.46305 -0.31648,-0.841908 -0.91697,-0.841908 -1.38712,0 -1.92689,2.430907 -0.69887,3.147418 1.04737,0.61111 3.96132,-0.212109 4.05785,-1.146383 z M 82.681658,82.025095 c -0.14477,-0.410027 -0.57725,-0.745504 -0.96107,-0.745504 -0.38382,0 -0.8163,0.335477 -0.96107,0.745504 -0.14477,0.410027 0.28771,0.745504 0.96107,0.745504 0.67336,0 1.10584,-0.335477 0.96107,-0.745504 z m 55.968582,0.05201 c 0,-0.381421 -0.33056,-0.693493 -0.73457,-0.693493 -0.40402,0 -0.73458,0.312072 -0.73458,0.693493 0,0.381421 0.33056,0.693492 0.73458,0.693492 0.40401,0 0.73457,-0.312071 0.73457,-0.693492 z m -8.08034,-2.468152 c 0,-0.549621 -0.33055,-0.99931 -0.73457,-0.99931 -0.40402,0 -0.73458,0.642561 -0.73458,1.427912 0,0.785352 0.33056,1.235042 0.73458,0.999311 0.40402,-0.235731 0.73457,-0.878291 0.73457,-1.427913 z m 6.08927,-7.934926 c -0.21463,-0.774838 -0.0222,-1.386294 0.43625,-1.386294 0.45114,0 0.82025,-0.501496 0.82025,-1.114435 0,-0.731302 -0.39947,-0.969718 -1.16195,-0.693493 -0.63907,0.231519 -1.43452,0.420943 -1.76768,0.420943 -0.33316,0 -0.25447,1.080531 0.17486,2.40118 0.80829,2.486369 2.17815,2.826577 1.49827,0.372099 z M 46.093638,68.554004 c 0,-0.572132 -0.12991,-1.040239 -0.28869,-1.040239 -0.15879,0 -0.47897,0.468107 -0.71152,1.040239 -0.23256,0.572131 -0.10265,1.040238 0.28869,1.040238 0.39134,0 0.71152,-0.468107 0.71152,-1.040238 z m 65.103842,-3.189846 c 1.10438,-2.156193 1.31992,-3.201084 0.73457,-3.561087 -1.19762,-0.736568 -2.09163,-0.644756 -1.56437,0.160658 0.29397,0.449048 -0.1505,0.474911 -1.26805,0.07378 -2.11354,-0.758624 -4.23989,0.505409 -4.23989,2.520447 0,0.769445 -0.49221,1.784634 -1.09378,2.255975 -0.60157,0.471341 -0.9027,1.14885 -0.66917,1.505574 0.25527,0.389937 0.80372,0.351543 1.37527,-0.09628 0.69939,-0.547974 1.063,-0.468528 1.37562,0.300553 0.75101,1.847675 3.66728,0.125312 5.3498,-3.159627 z m -4.13401,0.415876 c 0,-0.572132 0.33055,-1.040239 0.73457,-1.040239 0.40402,0 0.73458,0.468107 0.73458,1.040239 0,0.572131 -0.33056,1.040238 -0.73458,1.040238 -0.40402,0 -0.73457,-0.468107 -0.73457,-1.040238 z m 2.26172,-1.444776 c 0.0353,-0.807879 0.20931,-0.972207 0.4438,-0.418985 0.2122,0.500614 0.18611,1.098752 -0.058,1.329194 -0.2441,0.230441 -0.41771,-0.179153 -0.38581,-0.910209 z m -34.720812,3.22185 c 0.18365,-0.520119 -0.0918,-0.780179 -0.64275,-0.606806 -0.53027,0.166872 -1.10875,0.712997 -1.28551,1.213612 -0.18364,0.520119 0.0918,0.780179 0.64275,0.606806 0.53028,-0.166872 1.10876,-0.712997 1.28551,-1.213612 z m -17.74885,-1.153745 c 0.0804,-1.311677 -0.10973,-1.594977 -0.69785,-1.039749 -0.44461,0.419741 -1.40338,0.763166 -2.13061,0.763166 -1.69576,0 -1.72295,1.186425 -0.0367,1.602435 2.45569,0.605849 2.75526,0.467226 2.86519,-1.325852 z m 33.14434,0.286879 c -0.45402,-1.285889 -2.03538,-1.499164 -2.03538,-0.274507 0,0.603916 0.52338,1.09803 1.16307,1.09803 0.6397,0 1.03224,-0.370585 0.87231,-0.823523 z m 47.915802,0.13003 c 0.89101,-0.54361 0.78558,-0.674286 -0.55094,-0.682873 -0.90903,-0.0058 -1.65279,0.301452 -1.65279,0.682873 0,0.868892 0.77956,0.868892 2.20373,0 z m -66.180872,-1.81223 c -1.07459,-1.222389 -1.59617,-0.863965 -0.97317,0.66875 0.25385,0.624533 0.77352,0.953488 1.15482,0.731011 0.41335,-0.241173 0.34,-0.806369 -0.18165,-1.399761 z m -8.65891,-1.242596 c 0.0478,0.345182 0.0396,0.884852 -0.0182,1.199269 -0.0578,0.314417 0.21912,0.382441 0.6155,0.151164 0.83018,-0.484383 0.21772,-2.456562 -0.76288,-2.456562 -0.36079,0 -0.65599,-0.334362 -0.65599,-0.743028 0,-1.298846 -2.04753,-2.83059 -2.61829,-1.958726 -0.27953,0.42699 -0.17802,0.975509 0.22557,1.218931 0.40359,0.243422 0.63013,1.33299 0.50343,2.421263 -0.22335,1.918349 -0.18686,1.941502 1.19675,0.759383 0.78491,-0.670612 1.46626,-0.936875 1.51411,-0.591694 z m 11.76065,0.107483 c 0.79857,-1.414878 0.76674,-1.471619 -0.34145,-0.608578 -0.67217,0.523479 -1.22213,1.22564 -1.22213,1.560359 0,1.059298 0.65277,0.661947 1.56358,-0.951781 z m 26.548792,0.225259 c 0.25943,-0.936598 0.0657,-1.224943 -0.6489,-0.966043 -0.5603,0.202982 -1.01872,0.803776 -1.01872,1.3351 0,1.441377 1.24229,1.166449 1.66762,-0.369057 z m -51.618812,0.335788 c 0,-0.1682 -0.33056,-0.498689 -0.73457,-0.73442 -0.40402,-0.235731 -0.73458,-0.09811 -0.73458,0.305819 0,0.40393 0.33056,0.73442 0.73458,0.73442 0.40401,0 0.73457,-0.137618 0.73457,-0.305819 z M 101.3705,61.506538 c -1.6168,-0.615905 -0.98095,-1.730848 0.73458,-1.288063 1.46277,0.377546 1.50058,0.336753 0.32883,-0.354794 -0.99732,-0.5886 -1.59492,-0.569098 -2.42214,0.07905 -0.88128,0.690489 -0.90996,0.973149 -0.14519,1.431145 0.52415,0.313893 1.28355,0.550857 1.68757,0.526585 0.40401,-0.02427 0.32137,-0.201534 -0.18365,-0.393918 z m 81.8002,139.447802 c -0.64333,-1.58272 -0.59085,-1.67701 0.93333,-1.67701 0.75856,0 1.79071,-0.46811 2.29367,-1.04024 0.77235,-0.87858 0.62226,-1.04024 -0.96574,-1.04024 -1.75853,0 -1.85269,-0.16829 -1.45512,-2.60059 0.52901,-3.2365 0.86438,-3.61574 1.80068,-2.03625 0.60246,1.01635 0.94146,1.08748 1.83733,0.38556 0.88357,-0.69229 1.22914,-0.66589 1.76589,0.13492 0.36704,0.54761 0.67241,1.20168 0.67859,1.45349 0.0125,0.50875 -5.74101,7.51732 -6.17114,7.51732 -0.14939,0 -0.47226,-0.49363 -0.71749,-1.09696 z m -1.91504,-8.65286 c 0,-0.40394 -0.37344,-0.51653 -0.82987,-0.25022 -0.50373,0.29391 -0.69619,0.10558 -0.48972,-0.47919 0.48404,-1.37091 2.35424,-1.19425 2.6489,0.25022 0.13617,0.66748 -0.10723,1.21361 -0.54087,1.21361 -0.43364,0 -0.78844,-0.33049 -0.78844,-0.73442 z m 10.28407,-1.34606 c 0,-0.38142 0.35007,-0.69349 0.77793,-0.69349 0.42786,0 0.57363,0.31207 0.32393,0.69349 -0.24969,0.38142 -0.59976,0.69349 -0.77793,0.69349 -0.17816,0 -0.32393,-0.31207 -0.32393,-0.69349 z m 5.87661,-15.17498 c 0,-0.38142 0.33056,-0.88636 0.73458,-1.12209 0.40401,-0.23573 0.73457,-0.11653 0.73457,0.26489 0,0.38142 -0.33056,0.88636 -0.73457,1.12209 -0.40402,0.23573 -0.73458,0.11653 -0.73458,-0.26489 z m -2.20373,-12.56472 c 0,-0.76284 0.29961,-1.38698 0.66581,-1.38698 0.36619,0 0.49292,0.62414 0.28161,1.38698 -0.21131,0.76284 -0.51092,1.38699 -0.6658,1.38699 -0.15489,0 -0.28162,-0.62415 -0.28162,-1.38699 z m -2.15209,-8.8011 c 0.0284,-0.30857 0.33571,-1.18519 0.68294,-1.94803 0.60866,-1.33722 0.63317,-1.33246 0.68294,0.13244 0.0284,0.83569 -0.27892,1.7123 -0.68294,1.94804 -0.40402,0.23573 -0.71134,0.17613 -0.68294,-0.13245 z m -4.2802,-12.87007 c 0.40116,-1.15344 4.98596,-4.0566 5.7252,-3.62527 0.31988,0.18665 0.74903,-0.0527 0.95364,-0.53183 0.23394,-0.5478 0.39357,-0.57996 0.43003,-0.0866 0.0632,0.85421 -3.89854,3.88676 -6.06364,4.64153 -0.90623,0.31592 -1.2482,0.18578 -1.04523,-0.3978 z m 0.53229,-6.35717 c 1.06147,-2.63575 0.95163,-3.19963 -0.52754,-2.70824 -0.91035,0.30242 -1.06946,0.20342 -0.5452,-0.33925 1.01542,-1.05106 6.36488,-1.61142 7.71139,-0.80778 0.8498,0.5072 0.65503,0.65761 -0.86221,0.66583 -2.88379,0.0156 -4.2839,0.69555 -4.2839,2.08038 0,0.67533 -0.50636,1.62462 -1.12526,2.10953 -0.98821,0.77427 -1.03295,0.65242 -0.36728,-1.00047 z m -12.42471,-2.48533 c 0.004,-0.57213 0.48177,-1.63233 1.062,-2.35601 0.58024,-0.72368 0.84606,-1.63491 0.59071,-2.02496 -0.29988,-0.45808 0.0336,-0.50726 0.94176,-0.13891 0.7733,0.31366 2.45783,0.71042 3.74339,0.88171 2.49369,0.33226 3.7616,1.88918 2.04495,2.51107 -0.56883,0.20607 -1.45699,-0.0196 -1.9737,-0.50152 -1.18443,-1.10467 -3.50517,-1.95809 -3.52684,-1.29696 -0.009,0.2741 -0.66275,1.27854 -1.45281,2.23209 -0.94561,1.14129 -1.43409,1.37826 -1.42946,0.69349 z m 1.24447,-12.65192 c -0.42659,-1.197 0.21385,-3.2984 1.00524,-3.2984 0.85864,0 0.83876,3.27483 -0.0229,3.77759 -0.36951,0.2156 -0.81155,-3e-5 -0.9823,-0.47919 z m -2.50662,-0.9178 c -0.24298,-0.59777 -0.14996,-1.36234 0.2067,-1.69905 0.3749,-0.35394 0.64847,0.10455 0.64847,1.08685 0,1.96876 -0.2353,2.13721 -0.85517,0.6122 z m 0.48788,-4.15527 c 0,-0.59464 0.33056,-0.88829 0.73458,-0.65256 0.40401,0.23573 0.73457,0.72226 0.73457,1.08117 0,0.35891 -0.33056,0.65256 -0.73457,0.65256 -0.40402,0 -0.73458,-0.48652 -0.73458,-1.08117 z m 9.54949,-8.62772 c 1.43857,-0.87768 2.41101,-0.87768 1.83644,0 -0.2497,0.38142 -1.01296,0.68871 -1.69615,0.68287 -1.07048,-0.009 -1.08987,-0.10353 -0.14029,-0.68287 z m -20.51014,-1.79152 c 0.0353,-0.80788 0.20931,-0.97221 0.4438,-0.41899 0.2122,0.50062 0.18611,1.09875 -0.058,1.32919 -0.2441,0.23045 -0.41771,-0.17915 -0.38582,-0.9102 z m 24.19427,-0.4214 c -0.006,-0.64498 0.31931,-1.36556 0.72333,-1.60129 0.92968,-0.54244 0.92968,0.37561 0,1.73373 -0.61367,0.89647 -0.71364,0.87816 -0.72333,-0.13244 z m -24.98684,-4.722007 c 0,-0.38142 0.35007,-0.69349 0.77793,-0.69349 0.42786,0 0.57363,0.31207 0.32393,0.69349 -0.24969,0.38142 -0.59976,0.693497 -0.77793,0.693497 -0.17816,0 -0.32393,-0.312077 -0.32393,-0.693497 z m -5.23412,-3.785559 c -0.23769,-0.224393 -0.27771,-1.170736 -0.0889,-2.102985 0.37316,-1.842907 2.82169,-2.991756 4.0018,-1.877646 0.48971,0.462328 0.25522,0.837124 -0.70348,1.124386 -0.79093,0.236992 -1.73937,1.068395 -2.10764,1.847563 -0.36827,0.779168 -0.86405,1.233075 -1.10174,1.008682 z m 17.35463,-2.455867 c 0.2497,-0.381421 0.76504,-0.693493 1.14522,-0.693493 0.38017,0 0.69122,0.312072 0.69122,0.693493 0,0.381421 -0.51535,0.693492 -1.14522,0.693492 -0.62987,0 -0.94092,-0.312071 -0.69122,-0.693492 z m -9.91678,-1.386985 c 0,-0.381421 0.35007,-0.693493 0.77793,-0.693493 0.42786,0 0.57363,0.312072 0.32393,0.693493 -0.24969,0.381421 -0.59976,0.693492 -0.77793,0.693492 -0.17816,0 -0.32393,-0.312071 -0.32393,-0.693492 z m 2.9383,-0.693493 c 0.60603,-0.369739 1.59771,-0.655098 2.20373,-0.634131 0.72654,0.02514 0.60143,0.241141 -0.36729,0.634131 -2.01941,0.819238 -3.17922,0.819238 -1.83644,0 z m -4.34946,-1.098029 c 0.0353,-0.80788 0.20931,-0.972207 0.4438,-0.418986 0.2122,0.500615 0.18611,1.098753 -0.058,1.329195 -0.2441,0.230441 -0.41771,-0.179153 -0.38582,-0.910209 z m 12.4298,1.8e-5 c -1.23508,-0.646998 -1.44494,-0.965367 -0.64087,-0.972243 0.65755,-0.0056 1.60707,0.457884 2.11002,1.030015 1.07269,1.220218 0.96217,1.215872 -1.46915,-0.05777 z m 5.61097,-2.022705 c 0.23256,-0.572131 0.75849,-1.040239 1.16875,-1.040239 0.42996,0 0.35856,0.44065 -0.16853,1.040239 -0.50296,0.572131 -1.0289,1.040239 -1.16876,1.040239 -0.13985,0 -0.0641,-0.468108 0.16854,-1.040239 z m -33.52486,-6.860729 c 0,-0.531323 0.50348,-1.148443 1.11886,-1.371378 0.91283,-0.330693 0.9757,-0.152799 0.34144,0.966043 -0.91131,1.607561 -1.4603,1.759945 -1.4603,0.405335 z m 1.46915,-5.336752 c 0,-0.729093 0.29202,-1.325622 0.64894,-1.325622 0.35692,0 0.8118,-0.804307 1.01086,-1.787348 0.32262,-1.59333 0.17244,-1.742454 -1.38352,-1.373772 -1.92576,0.456304 -2.42567,-0.605013 -0.59701,-1.267487 0.63163,-0.228825 0.96179,-0.70114 0.73367,-1.049589 -0.22811,-0.348451 0.36214,-0.287419 1.31167,0.135624 1.48361,0.660993 1.65138,1.083237 1.19293,3.002289 -0.29803,1.247473 -0.22082,2.528313 0.17493,2.901921 0.45484,0.429406 0.35683,0.876012 -0.27381,1.247692 -1.77168,1.044171 -2.81866,0.8645 -2.81866,-0.483708 z m 25.71017,0.06136 c 0,-0.381421 0.33056,-0.693493 0.73457,-0.693493 0.40402,0 0.73458,0.312072 0.73458,0.693493 0,0.38142 -0.33056,0.693492 -0.73458,0.693492 -0.40401,0 -0.73457,-0.312072 -0.73457,-0.693492 z m -9.08572,-1.746432 c -0.27603,-0.679097 0.0423,-1.027538 0.93872,-1.027538 0.74602,0 2.63636,-0.497056 4.20076,-1.104569 1.85991,-0.722268 2.53542,-0.802628 1.95171,-0.23218 -0.7033,0.687336 -0.62539,1.062027 0.36729,1.76639 1.08297,0.768421 0.88715,0.839165 -1.39397,0.503623 -1.45964,-0.214708 -3.32732,-0.05013 -4.15038,0.365717 -1.17346,0.592895 -1.58662,0.534306 -1.91413,-0.271443 z M 132.77363,59.191855 c 0,-0.381421 0.33056,-0.693492 0.73458,-0.693492 0.40402,0 0.73458,0.312071 0.73458,0.693492 0,0.381421 -0.33056,0.693493 -0.73458,0.693493 -0.40402,0 -0.73458,-0.312072 -0.73458,-0.693493 z m 16.89526,-0.279247 c 0,-0.594036 0.61482,-0.977816 1.46915,-0.91706 0.80803,0.05746 1.46915,0.183124 1.46915,0.279247 0,0.09612 -0.66112,0.5088 -1.46915,0.91706 -1.1601,0.586138 -1.46915,0.527394 -1.46915,-0.279247 z m -44.07458,-2.494723 c 0,-0.381421 0.35007,-0.693492 0.77793,-0.693492 0.42787,0 0.57363,0.312071 0.32394,0.693492 -0.2497,0.381421 -0.59977,0.693493 -0.77793,0.693493 -0.17817,0 -0.32394,-0.312072 -0.32394,-0.693493 z m 35.99424,0.08186 c 0,-0.381421 0.33056,-0.886363 0.73457,-1.122095 0.40402,-0.235731 0.73458,-0.11653 0.73458,0.264891 0,0.381421 -0.33056,0.886363 -0.73458,1.122094 -0.40401,0.235732 -0.73457,0.116531 -0.73457,-0.26489 z m -24.53737,-0.667003 c -0.2542,-0.3883 -0.10424,-0.914849 0.33324,-1.170108 1.1294,-0.658969 1.85809,0.243659 0.91527,1.133746 -0.52756,0.498053 -0.93844,0.510019 -1.24851,0.03636 z m -9.25217,-1.147483 c -0.54785,-0.623199 -1.5151,-0.901222 -2.3084,-0.663518 -1.70826,0.511856 -1.90144,-1.422237 -0.2035,-2.037357 1.87189,-0.678141 2.2272,-0.520212 3.1551,1.402406 1.03444,2.143369 0.6975,2.823567 -0.6432,1.298469 z M 86.128048,54.337408 c -0.2497,-0.381421 0.20713,-0.693493 1.01516,-0.693493 0.80803,0 1.67344,0.312072 1.92314,0.693493 0.2497,0.381421 -0.20713,0.693492 -1.01516,0.693492 -0.80803,0 -1.67345,-0.312071 -1.92314,-0.693492 z m -4.70863,-0.624278 c -2.31814,-0.297658 -3.29202,-0.761123 -3.42424,-1.629573 -0.12079,-0.793393 0.30143,-1.213612 1.21939,-1.213612 0.77229,0 1.32152,0.39009 1.22051,0.866866 -0.10994,0.518942 0.77455,0.954085 2.20373,1.084177 1.31305,0.119522 2.38737,0.509611 2.38737,0.866865 0,0.357255 -0.0826,0.602684 -0.18364,0.545396 -0.10101,-0.05729 -1.64141,-0.29134 -3.42312,-0.520119 z m 46.584672,-0.754764 c -0.25735,-0.393113 0.0375,-0.509375 0.69122,-0.27255 1.27259,0.461027 1.50543,0.958099 0.4488,0.958099 -0.38018,0 -0.89319,-0.308497 -1.14002,-0.685549 z M 74.875768,48.442721 c 0.84644,-1.753831 1.44501,-2.09267 2.28909,-1.295803 0.72139,0.681044 -0.87982,3.029535 -2.06555,3.029535 -0.86437,0 -0.90567,-0.320336 -0.22354,-1.733732 z"
       id="path46"
       inkscape:connector-curvature="0"
       sodipodi:nodetypes="csssscscsccccccssscsccscccsssssssccsssccssccsccsscccccsscsccscscccssssccssscccssccssccsccccccsccscscscsscsscccccccsscccccsscccccsccccccccccccssccssscssccccccssccscccccccccscsccccsscsscsscccccssssscscscccccccsssccsscccccccccsccssscccscssccccccccccccscccccsssscccscscscccccccscccccsscccssscsccssccscssccccccccscssscccccscccsscsccccccccccccccccsscccccsccsscssccccsscsssssccsccsccccscccssscsccscccccssssssssssccscccssccscccccccsscssccscscscccsscssscscscssccscccccscscccsscsssccccccsscsccsccccccccccccssccscsccsccccccsccssccssccssscccsccccccsscccsccccccssccscsscscccccccccccscccccccccccccccccccsscssssssscssccccccccscccssssssssssssssscsscsccsscssccccsscccccsssssccccccccccccsccccsscscsscccccscsscscccccscccscscssscscccccccscscccscscscscsssscssscscsssssscccccccccccccccccscccccccsccsccscccccscscssscccccccccccccsscsscccssccssssssscsscccccccccccccccscscsssssscsccccccsssssssscccccssssssscscssscssscscsccscccccsccssscscscsscsccscccsc" />
  </g>
</svg>
